<?xml version="1.0" standalone="no"?>
<!DOCTYPE svg PUBLIC "-//W3C//DTD SVG 20010904//EN"
 "http://www.w3.org/TR/2001/REC-SVG-20010904/DTD/svg10.dtd">
<svg version="1.0" xmlns="http://www.w3.org/2000/svg"
 width="512.000000pt" height="512.000000pt" viewBox="0 0 512.000000 512.000000"
 preserveAspectRatio="xMidYMid meet">
<metadata>
Created by potrace 1.11, written by Peter Selinger 2001-2013
</metadata>
<g transform="translate(0.000000,512.000000) scale(0.100000,-0.100000)"
fill="#000000" stroke="none">
<path d="M1405 4818 c-11 -6 -26 -18 -33 -27 -185 -230 -253 -434 -227 -685
13 -130 73 -289 150 -397 30 -42 32 -51 25 -85 -23 -103 -33 -347 -17 -429 3
-16 9 -50 12 -75 11 -72 55 -203 75 -224 10 -10 32 -19 49 -20 27 -1 34 -8 63
-64 31 -62 31 -64 14 -93 -21 -36 -16 -57 36 -127 43 -58 154 -174 202 -210
16 -12 27 -25 24 -28 -5 -4 -78 -30 -242 -84 -27 -9 -33 -5 -80 43 -143 148
-290 433 -335 649 -21 98 -81 123 -177 72 -113 -60 -231 -147 -349 -259 -20
-19 -148 -168 -163 -190 -4 -6 -13 -18 -20 -27 -21 -26 -22 -57 -5 -93 15 -32
15 -34 -16 -84 -17 -28 -31 -55 -31 -61 0 -5 -10 -7 -23 -4 -38 7 -74 -15 -95
-59 -88 -189 -172 -488 -202 -717 -6 -47 -13 -96 -15 -110 -25 -140 -24 -755
0 -840 3 -9 7 -34 9 -55 18 -190 44 -245 115 -245 20 0 46 7 58 15 11 8 48 72
82 141 173 358 371 593 534 636 84 22 182 -21 252 -112 55 -71 127 -86 171
-35 12 13 31 52 42 87 58 177 175 352 287 427 57 39 139 67 181 62 6 0 21 -27
34 -58 113 -272 378 -537 619 -618 80 -27 188 -31 270 -10 243 63 542 352 655
635 22 56 28 60 78 48 69 -15 138 -57 208 -126 94 -94 158 -205 224 -393 22
-61 47 -83 97 -83 37 0 46 6 100 62 91 96 129 117 208 117 71 0 101 -13 176
-71 138 -109 261 -278 391 -539 41 -82 84 -158 95 -167 24 -21 87 -23 109 -5
37 30 46 60 65 222 3 28 8 61 10 75 29 169 26 649 -5 870 -5 41 -13 93 -16
115 -23 169 -116 494 -181 637 -35 77 -66 105 -106 96 -11 -2 -29 18 -52 57
-31 50 -35 63 -25 79 21 34 20 60 -6 104 -46 78 -177 222 -281 309 -68 57
-209 151 -265 176 -84 39 -140 10 -158 -81 -22 -105 -43 -166 -92 -271 -101
-212 -252 -421 -305 -421 -13 0 -76 18 -140 40 -65 22 -119 40 -121 40 -1 0
39 42 91 93 103 102 163 178 225 282 48 82 119 254 128 310 3 22 8 44 11 48 2
4 6 20 8 35 2 15 8 56 13 91 5 34 8 113 7 175 -2 97 -7 138 -30 254 -3 16 7
40 30 72 56 80 103 182 128 283 21 82 24 115 22 229 -3 148 -22 232 -77 341
-48 97 -157 247 -186 258 -21 8 -117 4 -162 -6 -3 -1 -30 -5 -60 -9 -156 -23
-340 -112 -456 -218 -38 -35 -44 -37 -70 -28 -16 6 -66 20 -112 31 -228 53
-469 43 -680 -27 l-43 -14 -54 48 c-126 112 -302 188 -502 216 -131 19 -142
19 -168 4z"/>
</g>
</svg>
